<?xml version="1.0" encoding="UTF-8"?>
<svg xmlns="http://www.w3.org/2000/svg" xmlns:xlink="http://www.w3.org/1999/xlink" viewBox="0 0 48 48" width="48px" height="48px">
<g id="surface75555066">
<path style=" stroke:none;fill-rule:nonzero;fill:rgb(99.215686%,84.705883%,20.784314%);fill-opacity:1;" d="M 39 14.003906 C 39 6.007812 30 2.847656 25 3.007812 C 16.324219 3.28125 15.425781 10.75 14.234375 13.503906 C 13.871094 14.347656 12 14.453125 12 16.402344 C 12.066406 17.21875 12.492188 17.964844 13.164062 18.4375 C 12.351562 24.191406 12.898438 30.234375 14.570312 34.003906 C 16.78125 38.980469 18 42.148438 18 45 L 18 48 L 36 48 C 36 48 33.5 43 33.5 34.003906 C 33.5 25.003906 39 21.003906 39 14.003906 Z M 39 14.003906 "/>
<path style=" stroke:none;fill-rule:nonzero;fill:rgb(93.333334%,93.333334%,93.333334%);fill-opacity:1;" d="M 20 22.003906 C 20 24.765625 17.761719 27.003906 15 27.003906 C 12.238281 27.003906 10 24.765625 10 22.003906 C 10 19.242188 12.238281 17.003906 15 17.003906 C 17.761719 17.003906 20 19.242188 20 22.003906 Z M 20 22.003906 "/>
<path style=" stroke:none;fill-rule:nonzero;fill:rgb(63.137257%,53.333336%,49.803922%);fill-opacity:1;" d="M 17 29.003906 C 15 29.003906 10 30.003906 10 37.003906 C 9.429688 37.273438 9.046875 37.832031 9 38.46875 C 9 39.46875 9.808594 41.054688 13.808594 41.054688 C 13.808594 41.054688 13.929688 41.046875 14.15625 41.050781 C 14.957031 41.074219 14.945312 41.074219 15.460938 41.0625 C 14.5625 41.277344 14.359375 41.300781 13.984375 41.371094 C 13.96875 41.949219 14.167969 43.296875 16.550781 44.089844 C 17.679688 45.355469 19.308594 46.054688 21 46 C 25.355469 46.0625 28.9375 42.585938 29 38.230469 C 29.003906 38.152344 29.003906 38.078125 29 38.003906 C 29 33.53125 23.5 29.003906 17 29.003906 Z M 17 29.003906 "/>
<path style=" stroke:none;fill-rule:nonzero;fill:rgb(55.29412%,43.137255%,38.82353%);fill-opacity:1;" d="M 24.949219 40.128906 C 24.738281 38.972656 23 39 23 39 C 23 39 23.082031 39.226562 23.324219 39.890625 C 20.28125 40.6875 17.144531 41.0625 14 41 C 13.90625 41.734375 14.160156 42.46875 14.683594 42.988281 C 17.554688 42.941406 21.257812 42.667969 23.75 41.140625 C 23.902344 41.625 24 42 24 42 C 24.714844 41.675781 25.109375 40.898438 24.949219 40.128906 Z M 24.949219 40.128906 "/>
<path style=" stroke:none;fill-rule:nonzero;fill:rgb(99.215686%,84.705883%,20.784314%);fill-opacity:1;" d="M 37 32.003906 C 37 33.660156 35.65625 35.003906 34 35.003906 C 32.34375 35.003906 31 33.660156 31 32.003906 C 31 30.34375 32.34375 29.003906 34 29.003906 C 35.65625 29.003906 37 30.34375 37 32.003906 Z M 37 32.003906 "/>
<path style=" stroke:none;fill-rule:nonzero;fill:rgb(97.647059%,65.882355%,14.509805%);fill-opacity:1;" d="M 35 32.003906 C 34.960938 32.535156 34.535156 32.964844 34 33.003906 L 33 33.003906 C 33 33.003906 33 31.003906 34 31.003906 C 34.535156 31.039062 34.960938 31.46875 35 32.003906 Z M 35 32.003906 "/>
<path style=" stroke:none;fill-rule:nonzero;fill:rgb(99.215686%,84.705883%,20.784314%);fill-opacity:1;" d="M 24.746094 31.328125 C 24.746094 31.328125 23 30.003906 17 30.003906 L 13 30.003906 C 11.894531 30.003906 11 29.105469 11 28.003906 C 11 26.898438 11.894531 26.003906 13 26.003906 L 16 26.003906 C 19 26.003906 19 24.003906 19 24.003906 Z M 24.746094 31.328125 "/>
<path style=" stroke:none;fill-rule:nonzero;fill:rgb(93.333334%,93.333334%,93.333334%);fill-opacity:1;" d="M 29 23.503906 C 29 26.539062 26.539062 29.003906 23.5 29.003906 C 20.460938 29.003906 18 26.539062 18 23.503906 C 18 20.464844 20.460938 18.003906 23.5 18.003906 C 26.539062 18.003906 29 20.464844 29 23.503906 Z M 29 23.503906 "/>
<path style=" stroke:none;fill-rule:nonzero;fill:rgb(12.941177%,12.941177%,12.941177%);fill-opacity:1;" d="M 15 23.003906 C 15 23.554688 14.550781 24.003906 14 24.003906 C 13.449219 24.003906 13 23.554688 13 23.003906 C 13 22.449219 13.449219 22.003906 14 22.003906 C 14.550781 22.003906 15 22.449219 15 23.003906 Z M 15 23.003906 "/>
<path style=" stroke:none;fill-rule:nonzero;fill:rgb(12.941177%,12.941177%,12.941177%);fill-opacity:1;" d="M 25 24.003906 C 25 24.554688 24.550781 25.003906 24 25.003906 C 23.449219 25.003906 23 24.554688 23 24.003906 C 23 23.449219 23.449219 23.003906 24 23.003906 C 24.550781 23.003906 25 23.449219 25 24.003906 Z M 25 24.003906 "/>
<path style="fill:none;stroke-width:1;stroke-linecap:butt;stroke-linejoin:miter;stroke:rgb(25.882354%,25.882354%,25.882354%);stroke-opacity:1;stroke-miterlimit:10;" d="M 28.500017 7.000004 C 28.500017 4.515628 30.515643 2.500001 33.00002 2.500001 C 35.484396 2.500001 37.500022 4.515628 37.500022 7.000004 C 37.500022 8.144536 37.070335 9.191412 36.367209 9.988287 " transform="matrix(0.999999,0,0,0.999999,0,0)"/>
<path style="fill:none;stroke-width:1;stroke-linecap:butt;stroke-linejoin:miter;stroke:rgb(25.882354%,25.882354%,25.882354%);stroke-opacity:1;stroke-miterlimit:10;" d="M 24.500015 5.000003 C 24.500015 2.515626 26.515641 0.5 29.000017 0.5 C 31.484394 0.5 33.50002 2.515626 33.50002 5.000003 C 33.50002 6.144535 33.070332 7.191411 32.367207 7.988286 " transform="matrix(0.999999,0,0,0.999999,0,0)"/>
<path style=" stroke:none;fill-rule:nonzero;fill:rgb(99.215686%,84.705883%,20.784314%);fill-opacity:1;" d="M 31 4.070312 C 28.878906 3.289062 26.707031 2.953125 25 3.007812 C 18.972656 3.195312 16.703125 6.859375 15.476562 10 L 31 10 Z M 31 4.070312 "/>
<path style="fill:none;stroke-width:1;stroke-linecap:butt;stroke-linejoin:miter;stroke:rgb(25.882354%,25.882354%,25.882354%);stroke-opacity:1;stroke-miterlimit:10;" d="M 30.531268 27.488298 L 33.43752 22.605482 L 34.339864 27.859392 L 37.500022 23.500014 L 37.500022 29.000017 " transform="matrix(0.999999,0,0,0.999999,0,0)"/>
</g>
</svg>
